<mxfile host="Electron" modified="2023-06-05T18:15:12.491Z" agent="Mozilla/5.0 (Macintosh; Intel Mac OS X 10_15_7) AppleWebKit/537.36 (KHTML, like Gecko) draw.io/21.2.8 Chrome/112.0.5615.165 Electron/24.2.0 Safari/537.36" etag="ocTQOb3cRTNg9ETnxZTe" version="21.2.8" type="device">
  <diagram name="Page-1" id="gFpo_FOr5Dwt_9cwHydp">
    <mxGraphModel dx="954" dy="674" grid="1" gridSize="10" guides="1" tooltips="1" connect="1" arrows="1" fold="1" page="1" pageScale="1" pageWidth="850" pageHeight="1100" math="0" shadow="0">
      <root>
        <mxCell id="0" />
        <mxCell id="1" parent="0" />
        <mxCell id="JtAF3XfoLmpFIwlsZT2Y-1" value="NodeMCU ESP32S" style="swimlane;whiteSpace=wrap;html=1;" parent="1" vertex="1">
          <mxGeometry x="200" y="170" width="210" height="390" as="geometry" />
        </mxCell>
        <mxCell id="JtAF3XfoLmpFIwlsZT2Y-14" style="edgeStyle=orthogonalEdgeStyle;rounded=0;orthogonalLoop=1;jettySize=auto;html=1;exitX=0.5;exitY=1;exitDx=0;exitDy=0;entryX=0.5;entryY=0;entryDx=0;entryDy=0;" parent="JtAF3XfoLmpFIwlsZT2Y-1" source="JtAF3XfoLmpFIwlsZT2Y-3" target="JtAF3XfoLmpFIwlsZT2Y-4" edge="1">
          <mxGeometry relative="1" as="geometry" />
        </mxCell>
        <mxCell id="JtAF3XfoLmpFIwlsZT2Y-3" value="" style="ellipse;html=1;" parent="JtAF3XfoLmpFIwlsZT2Y-1" vertex="1">
          <mxGeometry x="83" y="34" width="36" height="36" as="geometry" />
        </mxCell>
        <mxCell id="UI6hlZJkJ1oh1uI3WEW9-1" style="edgeStyle=orthogonalEdgeStyle;rounded=0;orthogonalLoop=1;jettySize=auto;html=1;exitX=0.5;exitY=1;exitDx=0;exitDy=0;entryX=0.5;entryY=0;entryDx=0;entryDy=0;" edge="1" parent="JtAF3XfoLmpFIwlsZT2Y-1" source="JtAF3XfoLmpFIwlsZT2Y-4" target="JtAF3XfoLmpFIwlsZT2Y-6">
          <mxGeometry relative="1" as="geometry" />
        </mxCell>
        <mxCell id="JtAF3XfoLmpFIwlsZT2Y-4" value="&lt;font style=&quot;font-size: 12px;&quot; face=&quot;Times New Roman&quot;&gt;Membaca Nilai dari 3 buah sensor&lt;/font&gt;" style="rounded=1;whiteSpace=wrap;html=1;arcSize=30;" parent="JtAF3XfoLmpFIwlsZT2Y-1" vertex="1">
          <mxGeometry x="42.5" y="100" width="117" height="40" as="geometry" />
        </mxCell>
        <mxCell id="JtAF3XfoLmpFIwlsZT2Y-6" value="&lt;font face=&quot;Times New Roman&quot;&gt;Memproses data dengan metode Logika &lt;i&gt;Fuzzy&lt;/i&gt;&lt;/font&gt;" style="rounded=1;whiteSpace=wrap;html=1;arcSize=30;" parent="JtAF3XfoLmpFIwlsZT2Y-1" vertex="1">
          <mxGeometry x="35.25" y="170" width="131.5" height="40" as="geometry" />
        </mxCell>
        <mxCell id="JtAF3XfoLmpFIwlsZT2Y-2" value="Sistem&amp;nbsp;" style="swimlane;whiteSpace=wrap;html=1;" parent="1" vertex="1">
          <mxGeometry x="410" y="170" width="190" height="390" as="geometry" />
        </mxCell>
        <mxCell id="JtAF3XfoLmpFIwlsZT2Y-13" value="" style="ellipse;html=1;shape=endState;" parent="JtAF3XfoLmpFIwlsZT2Y-2" vertex="1">
          <mxGeometry x="82" y="320" width="36" height="36" as="geometry" />
        </mxCell>
        <mxCell id="JtAF3XfoLmpFIwlsZT2Y-19" style="edgeStyle=orthogonalEdgeStyle;rounded=0;orthogonalLoop=1;jettySize=auto;html=1;exitX=1;exitY=0.5;exitDx=0;exitDy=0;" parent="1" source="JtAF3XfoLmpFIwlsZT2Y-8" target="JtAF3XfoLmpFIwlsZT2Y-9" edge="1">
          <mxGeometry relative="1" as="geometry" />
        </mxCell>
        <mxCell id="JtAF3XfoLmpFIwlsZT2Y-8" value="&lt;font face=&quot;Times New Roman&quot;&gt;Kirim Data hasil dari Logika &lt;i&gt;Fuzzy&lt;/i&gt;&lt;/font&gt;" style="rounded=1;whiteSpace=wrap;html=1;arcSize=30;" parent="1" vertex="1">
          <mxGeometry x="242.5" y="414" width="117" height="40" as="geometry" />
        </mxCell>
        <mxCell id="JtAF3XfoLmpFIwlsZT2Y-20" style="edgeStyle=orthogonalEdgeStyle;rounded=0;orthogonalLoop=1;jettySize=auto;html=1;exitX=0.5;exitY=1;exitDx=0;exitDy=0;entryX=0.5;entryY=0;entryDx=0;entryDy=0;" parent="1" source="JtAF3XfoLmpFIwlsZT2Y-9" target="JtAF3XfoLmpFIwlsZT2Y-13" edge="1">
          <mxGeometry relative="1" as="geometry">
            <mxPoint x="540" y="480" as="targetPoint" />
          </mxGeometry>
        </mxCell>
        <mxCell id="JtAF3XfoLmpFIwlsZT2Y-9" value="&lt;font face=&quot;Times New Roman&quot;&gt;Menerima dan menyimpan data kedalam basis data&lt;/font&gt;" style="rounded=1;whiteSpace=wrap;html=1;arcSize=30;" parent="1" vertex="1">
          <mxGeometry x="451.5" y="414" width="117" height="40" as="geometry" />
        </mxCell>
        <mxCell id="UI6hlZJkJ1oh1uI3WEW9-2" style="edgeStyle=orthogonalEdgeStyle;rounded=0;orthogonalLoop=1;jettySize=auto;html=1;exitX=0.5;exitY=1;exitDx=0;exitDy=0;" edge="1" parent="1" source="JtAF3XfoLmpFIwlsZT2Y-6" target="JtAF3XfoLmpFIwlsZT2Y-8">
          <mxGeometry relative="1" as="geometry" />
        </mxCell>
      </root>
    </mxGraphModel>
  </diagram>
</mxfile>
